<svg xmlns="http://www.w3.org/2000/svg" viewBox="0 0 96 96" fill="none">
  <rect width="96" height="96" rx="24" fill="#CCFBF1"/>
  <rect x="16" y="18" width="64" height="18" rx="9" fill="#0F766E"/>
  <circle cx="28" cy="27" r="4" fill="#99F6E4"/>
  <rect x="38" y="23" width="28" height="8" rx="4" fill="#ECFDF5"/>
  <rect x="16" y="39" width="64" height="18" rx="9" fill="#14B8A6"/>
  <circle cx="28" cy="48" r="4" fill="#CCFBF1"/>
  <rect x="38" y="44" width="22" height="8" rx="4" fill="#F0FDFA"/>
  <rect x="16" y="60" width="64" height="18" rx="9" fill="#5EEAD4"/>
  <circle cx="28" cy="69" r="4" fill="#115E59"/>
  <rect x="38" y="65" width="16" height="8" rx="4" fill="#F0FDFA"/>
  <path d="M70 27v6M70 48v6" stroke="#115E59" stroke-width="2.4" stroke-linecap="round"/>
  <path d="M67 31l3 3 3-3M67 52l3 3 3-3" stroke="#115E59" stroke-width="2.4" stroke-linecap="round" stroke-linejoin="round"/>
</svg>
